<svg xmlns="http://www.w3.org/2000/svg" width="600" height="440" viewBox="0 0 600 440"><defs><filter id="s"><feDropShadow dx="0" dy="12" stdDeviation="15" flood-color="#503f25" flood-opacity=".14"/></filter></defs><rect width="600" height="440" fill="#e9ead9"/><circle cx="490" cy="40" r="140" fill="#d9dfbd" opacity=".45"/><path d="M40 370Q90 250 190 370" fill="none" stroke="#d9dfbd" stroke-width="2"/><g filter="url(#s)"><ellipse cx="300" cy="360" rx="115" ry="20" fill="#c4bc9b" opacity=".3"/><path d="M225 90h150l-20 250H245Z" fill="#fff" opacity=".7"/><path d="M232 165h136l-15 165H247Z" fill="#b98939"/><ellipse cx="300" cy="165" rx="68" ry="13" fill="#d8b257"/><path d="m320 200 28-145h40" fill="none" stroke="#506844" stroke-width="9"/><rect x="260" y="185" width="30" height="30" rx="5" fill="#f9eabd" opacity=".6" transform="rotate(15 260 185)"/><rect x="305" y="225" width="30" height="30" rx="5" fill="#f9eabd" opacity=".6" transform="rotate(15 305 225)"/><rect x="275" y="275" width="30" height="30" rx="5" fill="#f9eabd" opacity=".6" transform="rotate(15 275 275)"/><circle cx="355" cy="135" r="40" fill="#7c984d"/><circle cx="355" cy="135" r="32" fill="#d4df7c"/><path d="M355 103v64m-32-32h64m-54-22 44 44m0-44-44 44" stroke="#eff1b7" stroke-width="3"/></g><g fill="#789159" opacity=".55"><ellipse cx="70" cy="105" rx="25" ry="8" transform="rotate(-30 70 105)"/><ellipse cx="92" cy="90" rx="23" ry="7" transform="rotate(30 92 90)"/></g></svg>